<svg width="114" height="68" viewBox="0 0 114 68" fill="none" xmlns="http://www.w3.org/2000/svg">
<path d="M61.1875 0.300537C72.0818 0.300537 81.022 7.62532 81.9492 16.9617C83.7941 16.0657 85.886 15.5613 88.1016 15.5613C95.5593 15.5615 101.604 21.2897 101.604 28.3552C101.604 29.3739 101.478 30.3643 101.24 31.3142C108.717 35.0947 113.174 39.8537 113.174 45.0251C113.173 57.3275 87.9539 67.3005 56.8438 67.3005C25.7334 67.3005 0.51306 57.3275 0.512695 45.0251C0.512695 40.0669 4.6094 35.487 11.5371 31.7859C11.2952 30.677 11.168 29.5298 11.168 28.3552C11.168 18.8087 19.553 11.0692 29.8965 11.0691C34.0079 11.0691 37.8095 12.293 40.8984 14.366C43.0636 6.30273 51.3256 0.300589 61.1875 0.300537Z" fill="white"/>
</svg>
