<svg width="39" height="40" viewBox="0 0 39 40" fill="none" xmlns="http://www.w3.org/2000/svg">
<path d="M20.167 39.3108H17.167V30.4241H20.167V39.3108ZM31.0811 30.0315L28.96 32.1526L24.6758 27.8684L26.7969 25.7473L31.0811 30.0315ZM12.7295 27.3635L8.44531 31.6467L6.32422 29.5256L10.6084 25.2414L12.7295 27.3635ZM19.3594 11.8274C23.6655 11.8274 27.1562 15.3191 27.1562 19.6252C27.156 23.9312 23.6654 27.4221 19.3594 27.4221C15.0533 27.4221 11.5627 23.9312 11.5625 19.6252C11.5625 15.3191 15.0532 11.8274 19.3594 11.8274ZM9.39941 22.5217H0.512695V19.5217H9.39941V22.5217ZM38.8857 22.5217H29.999V19.5217H38.8857V22.5217ZM12.0967 12.259L9.97559 14.3801L5.69141 10.0959L7.8125 7.97484L12.0967 12.259ZM31.3105 8.78246L27.0264 13.0666L24.9043 10.9455L29.1885 6.66136L31.3105 8.78246ZM20.167 9.56175H17.167V0.675034H20.167V9.56175Z" fill="#F9F9AD"/>
</svg>
